<svg id="Layer_1" data-name="Layer 1" xmlns="http://www.w3.org/2000/svg" viewBox="0 0 2004.26 2579.35"><defs><style>.cls-1,.cls-2,.cls-3,.cls-4{fill:none;stroke:#f2bb26;stroke-miterlimit:10;}.cls-1{stroke-width:70px;}.cls-2{stroke-width:40px;}.cls-3{stroke-width:50px;}.cls-4{stroke-width:30px;}.cls-5{font-size:307.91px;fill:#f2bb26;}.cls-5,.cls-6{font-family:AzonixRegular, Azonix;}.cls-6{font-size:116.83px;}</style></defs><title>Brainarcs Logo</title><rect class="cls-1" x="35" y="35" width="1934.26" height="1934.26"/><polyline class="cls-2" points="261.67 35 261.67 446.79 586.57 446.79 586.57 975.68"/><circle class="cls-3" cx="586.57" cy="1104.13" r="132.22"/><circle class="cls-3" cx="321" cy="662.37" r="112.32"/><circle class="cls-3" cx="936.59" cy="263.77" r="89.5"/><circle class="cls-3" cx="1704.95" cy="338.49" r="114.59"/><circle class="cls-3" cx="275.02" cy="1368.58" r="112.32"/><polyline class="cls-4" points="35 877.46 325.89 877.46 325.89 786.79"/><polyline class="cls-2" points="454.34 35 454.34 273 733.9 273 733.9 832.13 911.46 832.13 911.46 1368.58 363.67 1368.58"/><line class="cls-4" x1="733.9" y1="620.57" x2="586.57" y2="620.57"/><line class="cls-4" x1="1056.97" y1="1133.09" x2="909.63" y2="1133.09"/><line class="cls-2" x1="1939.03" y1="1107.77" x2="1704.95" y2="1107.77"/><polyline class="cls-2" points="1070.9 1561.25 637.57 1561.25 637.57 1371"/><polyline class="cls-2" points="1306.87 505.34 1306.87 256.63 1027.31 256.63"/><line class="cls-2" x1="433.32" y1="1969.26" x2="433.32" y2="1767.77"/><line class="cls-4" x1="1299.32" y1="1767.77" x2="1299.32" y2="1641.84"/><polyline class="cls-3" points="35 1767.77 1709.84 1767.77 1709.84 437.97"/><rect class="cls-2" x="1059.78" y="500.44" width="486.36" height="1154.13"/><line class="cls-4" x1="1440.36" y1="774.69" x2="1440.36" y2="1198.58"/><line class="cls-4" x1="1440.36" y1="1268.96" x2="1440.36" y2="1368.58"/><line class="cls-2" x1="1440.36" y1="1457.57" x2="1440.36" y2="1557.19"/><line class="cls-2" x1="1369.37" y1="1457.57" x2="1369.37" y2="1557.19"/><line class="cls-2" x1="1298.37" y1="1457.57" x2="1298.37" y2="1557.19"/><line class="cls-2" x1="1227.38" y1="1457.57" x2="1227.38" y2="1557.19"/><line class="cls-2" x1="1156.39" y1="1457.57" x2="1156.39" y2="1557.19"/><line class="cls-2" x1="1440.36" y1="586.15" x2="1440.36" y2="685.77"/><line class="cls-2" x1="1369.37" y1="586.15" x2="1369.37" y2="685.77"/><line class="cls-2" x1="1298.37" y1="586.15" x2="1298.37" y2="685.77"/><line class="cls-2" x1="1227.38" y1="586.15" x2="1227.38" y2="685.77"/><line class="cls-2" x1="1156.39" y1="586.15" x2="1156.39" y2="685.77"/><text class="cls-5" transform="translate(35 2361.49)">BRAINARCS</text><text class="cls-6" transform="translate(294.41 2557.97)">WE MAKE I.T HAPPEN</text></svg>